<?xml version="1.0" encoding="utf-8" ?>
<svg baseProfile="tiny" height="512" version="1.2" width="512" xmlns="http://www.w3.org/2000/svg" xmlns:ev="http://www.w3.org/2001/xml-events" xmlns:xlink="http://www.w3.org/1999/xlink"><defs /><path d="M 378,88 L 377,89 L 375,89 L 374,90 L 372,90 L 371,91 L 369,91 L 368,92 L 366,92 L 365,93 L 363,93 L 362,94 L 360,94 L 359,95 L 358,95 L 357,96 L 355,96 L 354,97 L 352,97 L 351,98 L 349,98 L 348,99 L 346,99 L 345,100 L 343,100 L 342,101 L 340,101 L 339,102 L 337,102 L 336,103 L 335,103 L 334,104 L 332,104 L 331,105 L 329,105 L 328,106 L 326,106 L 325,107 L 323,107 L 322,108 L 320,108 L 319,109 L 317,109 L 316,110 L 315,110 L 314,111 L 312,111 L 311,112 L 309,112 L 308,113 L 306,113 L 305,114 L 303,114 L 302,115 L 301,115 L 300,116 L 298,116 L 297,117 L 295,117 L 294,118 L 292,118 L 291,119 L 289,119 L 288,120 L 286,120 L 285,121 L 284,121 L 283,122 L 281,122 L 280,123 L 278,123 L 277,124 L 275,124 L 274,125 L 272,125 L 271,126 L 269,126 L 268,127 L 266,127 L 265,128 L 263,128 L 262,129 L 261,129 L 260,130 L 258,130 L 257,131 L 255,131 L 254,132 L 252,132 L 251,133 L 250,133 L 249,134 L 247,134 L 246,135 L 244,135 L 243,136 L 241,136 L 240,137 L 238,137 L 237,138 L 236,138 L 235,139 L 233,139 L 232,140 L 230,140 L 229,141 L 227,141 L 226,142 L 224,142 L 223,143 L 221,143 L 220,144 L 219,144 L 218,145 L 216,145 L 215,146 L 213,146 L 212,147 L 210,147 L 209,148 L 207,148 L 206,149 L 204,149 L 203,150 L 202,150 L 201,151 L 199,151 L 198,152 L 196,152 L 195,153 L 193,153 L 192,154 L 190,154 L 189,155 L 188,155 L 187,156 L 185,156 L 184,157 L 182,157 L 181,158 L 179,158 L 178,159 L 176,159 L 175,160 L 173,160 L 172,161 L 171,161 L 170,162 L 168,162 L 167,163 L 165,163 L 164,164 L 162,164 L 161,165 L 159,165 L 158,166 L 156,166 L 155,167 L 154,167 L 153,168 L 151,168 L 150,169 L 148,169 L 147,170 L 145,170 L 144,171 L 142,171 L 141,172 L 140,172 L 139,173 L 137,173 L 136,174 L 134,174 L 133,175 L 131,175 L 130,176 L 128,176 L 127,177 L 125,177 L 124,178 L 123,178 L 122,179 L 120,179 L 119,180 L 117,180 L 116,181 L 114,181 L 113,182 L 111,182 L 110,183 L 108,183 L 107,184 L 106,184 L 105,185 L 103,185 L 102,186 L 100,186 L 99,187 L 97,187 L 96,188 L 95,188 L 94,189 L 93,189 L 92,190 L 92,191 L 90,193 L 90,195 L 89,196 L 89,275 L 90,276 L 90,277 L 91,278 L 91,279 L 102,290 L 102,291 L 191,380 L 192,380 L 193,381 L 200,381 L 201,380 L 203,380 L 204,379 L 205,379 L 206,378 L 208,378 L 209,377 L 211,377 L 212,376 L 213,376 L 214,375 L 216,375 L 217,374 L 219,374 L 220,373 L 222,373 L 223,372 L 224,372 L 225,371 L 227,371 L 228,370 L 230,370 L 231,369 L 232,369 L 233,368 L 235,368 L 236,367 L 238,367 L 239,366 L 241,366 L 242,365 L 243,365 L 244,364 L 246,364 L 247,363 L 249,363 L 250,362 L 251,362 L 252,361 L 254,361 L 255,360 L 257,360 L 258,359 L 259,359 L 260,358 L 262,358 L 263,357 L 265,357 L 266,356 L 267,356 L 268,355 L 270,355 L 271,354 L 273,354 L 274,353 L 276,353 L 277,352 L 278,352 L 279,351 L 281,351 L 282,350 L 284,350 L 285,349 L 287,349 L 288,348 L 289,348 L 290,347 L 292,347 L 293,346 L 295,346 L 296,345 L 298,345 L 299,344 L 300,344 L 301,343 L 303,343 L 304,342 L 306,342 L 307,341 L 308,341 L 309,340 L 311,340 L 312,339 L 314,339 L 315,338 L 317,338 L 318,337 L 319,337 L 320,336 L 322,336 L 323,335 L 325,335 L 326,334 L 328,334 L 329,333 L 330,333 L 331,332 L 333,332 L 334,331 L 336,331 L 337,330 L 339,330 L 340,329 L 341,329 L 342,328 L 344,328 L 345,327 L 347,327 L 348,326 L 350,326 L 351,325 L 352,325 L 353,324 L 355,324 L 356,323 L 358,323 L 359,322 L 360,322 L 361,321 L 363,321 L 364,320 L 366,320 L 367,319 L 368,319 L 369,318 L 371,318 L 372,317 L 374,317 L 375,316 L 377,316 L 378,315 L 379,315 L 380,314 L 382,314 L 383,313 L 385,313 L 386,312 L 387,312 L 388,311 L 390,311 L 391,310 L 393,310 L 394,309 L 395,309 L 396,308 L 398,308 L 399,307 L 401,307 L 402,306 L 403,306 L 404,305 L 406,305 L 407,304 L 409,304 L 410,303 L 412,303 L 413,302 L 414,302 L 415,301 L 417,301 L 418,300 L 420,300 L 421,299 L 422,299 L 423,298 L 425,298 L 426,297 L 428,297 L 429,296 L 430,296 L 431,295 L 433,295 L 434,294 L 436,294 L 437,293 L 438,293 L 439,292 L 441,292 L 442,291 L 444,291 L 445,290 L 446,290 L 447,289 L 449,289 L 450,288 L 452,288 L 453,287 L 454,287 L 455,286 L 457,286 L 458,285 L 460,285 L 461,284 L 462,284 L 463,283 L 465,283 L 466,282 L 468,282 L 469,281 L 470,281 L 471,280 L 473,280 L 474,279 L 476,279 L 477,278 L 479,278 L 480,277 L 481,277 L 486,272 L 486,271 L 487,270 L 487,208 L 486,207 L 486,190 L 485,189 L 485,188 L 461,164 L 460,164 L 395,99 L 395,98 L 387,90 L 386,90 L 385,89 L 384,89 L 383,88 Z" fill="black" /></svg>