<svg xmlns="http://www.w3.org/2000/svg" width="347" height="75" viewBox="0 0 347 75" version="1.1">
	<path d="M 327.619 21.868 C 325.291 24.441, 323 32.261, 323 37.636 C 323 41.135, 322.527 42.264, 320.508 43.587 C 319.117 44.498, 317.254 44.928, 316.293 44.559 C 314.789 43.982, 314.871 43.746, 316.937 42.699 C 320.376 40.957, 321.743 38.405, 320.393 36.250 C 317.746 32.028, 311.510 35.402, 310.830 41.423 C 310.649 43.030, 309.868 44.553, 309.097 44.807 C 307.953 45.183, 307.816 44.225, 308.355 39.634 C 308.884 35.138, 308.733 34, 307.607 34 C 306.831 34, 305.725 35.350, 305.150 37 C 303.877 40.652, 301.689 41.087, 302.587 37.509 C 303.557 33.645, 300.301 32.949, 297.342 36.388 L 295 39.112 295 36.472 C 295 32.365, 292.651 34.034, 291.431 39.009 C 290.106 44.412, 287.529 46.370, 285.441 43.559 C 284.649 42.491, 284 40.579, 284 39.309 C 284 37.337, 284.511 37, 287.500 37 C 289.944 37, 291 36.548, 291 35.500 C 291 34.675, 290.332 34, 289.516 34 C 288.231 34, 288.249 33.546, 289.651 30.606 C 291.626 26.465, 290.819 22, 288.096 22 C 285.967 22, 283.405 25.451, 282.420 29.646 C 282.051 31.216, 280.796 33.260, 279.631 34.188 C 277.692 35.733, 277.660 35.932, 279.257 36.545 C 281.538 37.420, 281.489 41.248, 279.169 43.347 C 276.706 45.576, 276.163 44.736, 276.742 39.598 C 277.198 35.555, 277.052 35.230, 274.497 34.589 C 271.233 33.769, 268.402 35.899, 266.368 40.704 C 263.796 46.780, 253.826 46.135, 251.580 39.747 C 249.418 33.601, 255.484 23.914, 259.786 26.643 C 260.729 27.241, 261.500 28.803, 261.500 30.115 C 261.500 33.590, 264.421 33.192, 264.825 29.662 C 265.327 25.280, 262.402 22.683, 257.678 23.316 C 253.184 23.919, 250.255 26.246, 248.362 30.718 C 243.532 42.128, 251.443 50.601, 263.655 47.099 C 265.728 46.504, 267.163 46.563, 267.872 47.272 C 268.621 48.021, 269.634 48.033, 271.223 47.311 C 272.796 46.596, 274.010 46.599, 275.149 47.319 C 276.360 48.085, 277.434 47.946, 279.192 46.794 C 281.211 45.471, 281.873 45.434, 283.411 46.558 C 285.821 48.321, 294.227 47.858, 294.820 45.930 C 295.062 45.144, 295.936 42.925, 296.763 41 C 298.245 37.550, 298.276 37.536, 298.924 40 C 299.314 41.483, 300.425 42.623, 301.654 42.802 C 302.794 42.967, 304.228 44.205, 304.842 45.552 C 306.051 48.207, 307.148 48.526, 309.932 47.036 C 311.135 46.393, 312.790 46.472, 314.918 47.275 C 317.581 48.280, 318.577 48.206, 320.995 46.818 C 323.481 45.391, 324.052 45.358, 325.066 46.579 C 326.506 48.315, 329.182 48.418, 330.800 46.800 C 332.674 44.926, 332.212 43.798, 329.875 44.540 C 326.255 45.689, 326.210 43.250, 329.724 36.267 C 332.353 31.045, 333.027 28.582, 332.796 25.047 C 332.460 19.905, 330.490 18.696, 327.619 21.868 M 177 24 C 176.411 25.100, 176.305 26, 176.765 26 C 177.828 26, 180 23.852, 180 22.800 C 180 21.248, 178.057 22.025, 177 24 M 328.110 26.241 C 327.532 28.033, 326.799 31.525, 326.482 34 L 325.904 38.500 327.867 34.963 C 330.299 30.580, 331.541 24.453, 330.170 23.605 C 329.615 23.262, 328.688 24.448, 328.110 26.241 M 286.138 27.421 C 285.468 29.028, 285.070 31.053, 285.253 31.921 C 285.784 34.430, 288.205 29.349, 287.741 26.698 C 287.386 24.664, 287.266 24.718, 286.138 27.421 M 306.336 28.567 C 306.005 29.429, 306.247 30.647, 306.874 31.274 C 308.282 32.682, 311.616 29.806, 310.559 28.096 C 309.561 26.481, 307.028 26.764, 306.336 28.567 M 14.750 28.662 C 15.618 29.012, 16 31.869, 16 38 C 16 44.131, 15.618 46.988, 14.750 47.338 C 14.063 47.615, 16.212 47.878, 19.527 47.921 C 26.815 48.017, 30 46.219, 30 42.011 C 30 40.013, 29.389 38.941, 28 38.500 C 25.988 37.862, 25.194 36, 26.933 36 C 27.446 36, 28.178 35.015, 28.560 33.812 C 29.684 30.270, 25.928 27.984, 19.139 28.079 C 16.038 28.122, 14.063 28.385, 14.750 28.662 M 34.250 29.080 C 35.683 29.915, 36 31.531, 36 38 C 36 44.469, 35.683 46.085, 34.250 46.920 C 32.881 47.717, 33.479 47.929, 37 47.891 C 39.475 47.864, 40.938 47.615, 40.250 47.338 C 38.567 46.659, 38.523 30.877, 40.200 29.200 C 41.133 28.267, 40.411 28.007, 36.950 28.030 C 33.441 28.054, 32.870 28.276, 34.250 29.080 M 45.750 28.662 C 46.618 29.012, 47 31.869, 47 38 C 47 44.131, 46.618 46.988, 45.750 47.338 C 45.063 47.615, 48.212 47.878, 52.750 47.921 L 61 48 60.968 45.250 C 60.939 42.750, 60.816 42.659, 59.608 44.250 C 58.771 45.353, 56.933 46, 54.640 46 C 51.147 46, 51 45.859, 51 42.500 C 51 39.514, 51.338 39, 53.300 39 C 54.565 39, 56.140 39.540, 56.800 40.200 C 57.733 41.133, 58 40.689, 58 38.200 C 58 36.440, 57.550 35, 57 35 C 56.450 35, 56 35.450, 56 36 C 56 36.550, 54.875 37, 53.500 37 C 51.310 37, 51 36.567, 51 33.500 C 51 30.176, 51.174 30, 54.450 30 C 56.681 30, 58.261 30.618, 58.920 31.750 C 59.791 33.246, 59.944 33.101, 59.970 30.750 L 60 28 52.250 28.079 C 47.987 28.122, 45.063 28.385, 45.750 28.662 M 64.750 28.662 C 65.618 29.012, 66 31.869, 66 38 C 66 44.131, 65.618 46.988, 64.750 47.338 C 64.063 47.615, 65.300 47.864, 67.500 47.891 C 70.682 47.929, 71.142 47.731, 69.750 46.920 C 68.394 46.130, 68 44.562, 68 39.950 C 68 36.678, 68.338 34.016, 68.750 34.036 C 69.162 34.055, 71.975 37.201, 75 41.025 C 78.025 44.850, 80.838 47.984, 81.250 47.990 C 81.662 47.995, 82 44.040, 82 39.200 C 82 33.689, 82.448 29.952, 83.200 29.200 C 84.133 28.267, 83.535 28, 80.509 28 C 77.102 28, 76.836 28.159, 78.369 29.280 C 79.737 30.281, 80.052 31.724, 79.810 35.884 L 79.500 41.208 74.151 34.604 C 69.908 29.366, 68.254 28.016, 66.151 28.079 C 64.693 28.122, 64.063 28.385, 64.750 28.662 M 88.250 29.080 C 90.826 30.581, 90.826 45.419, 88.250 46.920 C 86.958 47.673, 88.657 47.947, 94.750 47.970 L 103 48 102.968 45.250 C 102.939 42.750, 102.816 42.659, 101.608 44.250 C 100.771 45.353, 98.933 46, 96.640 46 C 93.147 46, 93 45.859, 93 42.500 C 93 39.514, 93.338 39, 95.300 39 C 96.565 39, 98.140 39.540, 98.800 40.200 C 99.733 41.133, 99.993 40.522, 99.970 37.450 C 99.945 34.281, 99.738 33.846, 98.920 35.250 C 98.359 36.212, 96.798 37, 95.450 37 C 93.317 37, 93 36.548, 93 33.500 C 93 30.207, 93.195 30, 96.300 30 C 98.115 30, 100.140 30.540, 100.800 31.200 C 101.733 32.133, 102 31.911, 102 30.200 C 102 28.120, 101.577 28.002, 94.250 28.030 C 88.497 28.053, 86.951 28.323, 88.250 29.080 M 108.939 30.061 C 105.962 33.038, 106.869 36.011, 111.750 39.283 C 116.148 42.231, 116.856 43.744, 114.800 45.800 C 113.071 47.529, 111.283 47.283, 109 45 C 107.075 43.075, 107 43.071, 107 44.893 C 107 48.198, 112.930 49.138, 116.777 46.443 C 120.273 43.995, 119.774 39.430, 115.750 37.045 C 110.435 33.895, 109.853 33.144, 111.026 30.952 C 112.376 28.430, 113.825 28.487, 116.686 31.174 C 118.408 32.793, 119 32.972, 119 31.874 C 119 27.796, 112.395 26.605, 108.939 30.061 M 130.750 28.662 C 131.618 29.012, 132 31.869, 132 38 C 132 44.131, 131.618 46.988, 130.750 47.338 C 130.063 47.615, 131.525 47.864, 134 47.891 C 137.521 47.929, 138.119 47.717, 136.750 46.920 C 135.551 46.221, 135 44.658, 135 41.950 C 135 36.458, 137.061 36.858, 140.403 43 L 143.125 48 148.621 48 C 152.228 48, 153.893 47.637, 153.465 46.943 C 153.106 46.362, 153.088 44.787, 153.425 43.443 C 153.943 41.378, 154.638 41, 157.911 41 C 161.268 41, 161.872 41.353, 162.450 43.655 C 162.883 45.381, 162.658 46.601, 161.808 47.140 C 161.003 47.650, 162.232 47.969, 165 47.969 C 167.475 47.969, 168.981 47.639, 168.347 47.235 C 167.713 46.831, 165.520 42.318, 163.475 37.207 C 161.429 32.096, 159.306 28.065, 158.756 28.248 C 158.206 28.431, 156.083 32.613, 154.038 37.541 C 151.769 43.010, 149.683 46.624, 148.682 46.819 C 147.632 47.024, 145.964 45.436, 144.039 42.401 C 141.089 37.749, 141.071 37.639, 143.018 36.275 C 145.495 34.540, 145.559 31.816, 143.171 29.655 C 141.876 28.483, 139.614 28.023, 135.421 28.079 C 132.165 28.122, 130.063 28.385, 130.750 28.662 M 172.800 29.200 C 174.477 30.877, 174.433 46.659, 172.750 47.338 C 172.063 47.615, 173.525 47.864, 176 47.891 C 179.521 47.929, 180.119 47.717, 178.750 46.920 C 177.317 46.085, 177 44.469, 177 38 C 177 31.531, 177.317 29.915, 178.750 29.080 C 180.130 28.276, 179.559 28.054, 176.050 28.030 C 172.589 28.007, 171.867 28.267, 172.800 29.200 M 189.256 29.029 C 186.732 30.044, 183.009 35.563, 183.004 38.300 C 182.997 41.329, 185.708 45.546, 188.472 46.805 C 193.679 49.178, 200 47.645, 200 44.010 C 200 42.263, 199.780 42.311, 197.545 44.545 C 194.450 47.641, 192.550 47.641, 189.455 44.545 C 187.648 42.739, 187 41.010, 187 38 C 187 34.990, 187.648 33.261, 189.455 31.455 C 192.597 28.312, 194.500 28.357, 197.548 31.646 C 199.326 33.564, 200 33.859, 200 32.717 C 200 28.763, 194.561 26.896, 189.256 29.029 M 204.750 28.662 C 205.618 29.012, 206 31.869, 206 38 C 206 44.131, 205.618 46.988, 204.750 47.338 C 204.063 47.615, 206.988 47.878, 211.250 47.921 L 219 48 218.970 45.250 C 218.944 42.899, 218.791 42.754, 217.920 44.250 C 217.221 45.449, 215.658 46, 212.950 46 C 209.080 46, 209 45.927, 209 42.391 C 209 38.854, 209.071 38.789, 212.500 39.190 C 215.707 39.564, 215.993 39.385, 215.921 37.049 C 215.878 35.647, 215.615 35.063, 215.338 35.750 C 215.060 36.438, 213.521 37, 211.917 37 C 209.250 37, 209 36.700, 209 33.500 C 209 30.083, 209.095 30, 213 30 C 215.200 30, 217 30.450, 217 31 C 217 31.550, 217.450 32, 218 32 C 218.550 32, 219 31.100, 219 30 C 219 28.165, 218.360 28.007, 211.250 28.079 C 206.988 28.122, 204.063 28.385, 204.750 28.662 M 226.223 29.557 C 224.788 30.562, 224 32.149, 224 34.036 C 224 36.424, 224.710 37.321, 227.877 38.937 C 232.403 41.246, 233.524 43.333, 231.386 45.471 C 229.299 47.558, 228.314 47.405, 225.455 44.545 L 223 42.091 223 44.500 C 223 46.472, 223.650 47.031, 226.577 47.580 C 231.198 48.447, 234.765 46.785, 235.624 43.363 C 236.320 40.589, 235.685 39.794, 228.811 34.832 C 226.955 33.493, 226.711 32.815, 227.571 31.392 C 229.162 28.760, 230.636 28.636, 232.938 30.938 C 234.901 32.901, 235 32.910, 235 31.107 C 235 27.839, 229.948 26.947, 226.223 29.557 M 19 33 C 19 36.185, 19.367 37, 20.800 37 C 24.856 37, 26.520 31.884, 23.066 30.035 C 19.784 28.279, 19 28.851, 19 33 M 135.667 29.667 C 134.339 30.994, 134.954 37, 136.418 37 C 139.291 37, 141 35.729, 141 33.593 C 141 30.185, 137.629 27.704, 135.667 29.667 M 156.321 35.960 C 155.240 38.824, 155.314 39, 157.587 39 C 160.243 39, 160.686 37.320, 158.734 34.651 C 157.585 33.080, 157.363 33.200, 156.321 35.960 M 271.245 38.250 C 269.508 40.421, 268.864 43.798, 270.046 44.529 C 271.578 45.475, 272.657 44.129, 273.474 40.250 C 274.175 36.923, 273.087 35.947, 271.245 38.250 M 314.980 38.524 C 314.284 39.362, 313.985 40.318, 314.314 40.648 C 315.338 41.672, 318 40.143, 318 38.531 C 318 36.573, 316.602 36.569, 314.980 38.524 M 19 42.500 C 19 46.554, 19.232 47, 21.345 47 C 23.727 47, 27 44.246, 27 42.243 C 27 40.325, 23.947 38, 21.429 38 C 19.217 38, 19 38.402, 19 42.500" stroke="none" fill="#000000" fill-rule="evenodd"/>
</svg>