<?xml version="1.0" encoding="utf-8" ?>
<svg baseProfile="tiny" height="512" version="1.2" width="512" xmlns="http://www.w3.org/2000/svg" xmlns:ev="http://www.w3.org/2001/xml-events" xmlns:xlink="http://www.w3.org/1999/xlink"><defs /><path d="M 234,95 L 233,96 L 228,96 L 227,97 L 223,97 L 222,98 L 219,98 L 218,99 L 216,99 L 215,100 L 212,100 L 211,101 L 210,101 L 209,102 L 207,102 L 206,103 L 205,103 L 204,104 L 203,104 L 202,105 L 201,105 L 200,106 L 199,106 L 198,107 L 197,107 L 196,108 L 195,108 L 194,109 L 193,109 L 191,111 L 190,111 L 188,113 L 187,113 L 185,115 L 184,115 L 180,119 L 179,119 L 167,131 L 167,132 L 164,135 L 164,136 L 162,138 L 162,139 L 160,141 L 160,142 L 158,144 L 158,145 L 157,146 L 157,147 L 156,148 L 156,149 L 155,150 L 155,151 L 154,152 L 154,153 L 153,154 L 153,155 L 152,156 L 152,158 L 151,159 L 151,160 L 150,161 L 150,163 L 149,164 L 149,167 L 148,168 L 148,171 L 147,172 L 147,175 L 146,176 L 146,182 L 145,183 L 145,227 L 144,228 L 139,228 L 138,229 L 134,229 L 133,230 L 130,230 L 129,231 L 128,231 L 127,232 L 126,232 L 125,233 L 124,233 L 123,234 L 122,234 L 118,238 L 117,238 L 116,239 L 116,240 L 112,244 L 112,245 L 110,247 L 110,248 L 109,249 L 109,251 L 108,252 L 108,254 L 107,255 L 107,258 L 106,259 L 106,407 L 107,408 L 107,412 L 108,413 L 108,415 L 109,416 L 109,417 L 110,418 L 110,419 L 112,421 L 112,422 L 114,424 L 114,425 L 118,429 L 119,429 L 122,432 L 123,432 L 124,433 L 125,433 L 126,434 L 127,434 L 128,435 L 129,435 L 130,436 L 132,436 L 133,437 L 137,437 L 138,438 L 356,438 L 357,437 L 361,437 L 362,436 L 363,436 L 364,435 L 366,435 L 367,434 L 368,434 L 370,432 L 371,432 L 373,430 L 374,430 L 379,425 L 379,424 L 381,422 L 381,421 L 383,419 L 383,418 L 384,417 L 384,415 L 385,414 L 385,412 L 386,411 L 386,408 L 387,407 L 387,261 L 386,260 L 386,256 L 385,255 L 385,253 L 384,252 L 384,250 L 383,249 L 383,248 L 381,246 L 381,245 L 379,243 L 379,242 L 373,236 L 372,236 L 370,234 L 369,234 L 367,232 L 365,232 L 364,231 L 363,231 L 362,230 L 359,230 L 358,229 L 353,229 L 352,228 L 349,228 L 348,227 L 348,182 L 347,181 L 347,176 L 346,175 L 346,172 L 345,171 L 345,168 L 344,167 L 344,165 L 343,164 L 343,162 L 342,161 L 342,159 L 341,158 L 341,157 L 340,156 L 340,155 L 339,154 L 339,153 L 338,152 L 338,151 L 337,150 L 337,149 L 336,148 L 336,147 L 335,146 L 335,145 L 333,143 L 333,142 L 332,141 L 332,140 L 329,137 L 329,136 L 326,133 L 326,132 L 313,119 L 312,119 L 308,115 L 307,115 L 305,113 L 304,113 L 302,111 L 301,111 L 299,109 L 298,109 L 297,108 L 296,108 L 295,107 L 294,107 L 293,106 L 292,106 L 291,105 L 290,105 L 289,104 L 288,104 L 287,103 L 285,103 L 284,102 L 283,102 L 282,101 L 280,101 L 279,100 L 277,100 L 276,99 L 274,99 L 273,98 L 270,98 L 269,97 L 265,97 L 264,96 L 258,96 L 257,95 Z" fill="black" /></svg>