<?xml version="1.0" encoding="utf-8" ?>
<svg baseProfile="tiny" height="512" version="1.2" width="512" xmlns="http://www.w3.org/2000/svg" xmlns:ev="http://www.w3.org/2001/xml-events" xmlns:xlink="http://www.w3.org/1999/xlink"><defs /><path d="M 248,52 L 247,53 L 229,53 L 228,54 L 221,54 L 220,55 L 215,55 L 214,56 L 211,56 L 210,57 L 206,57 L 205,58 L 202,58 L 201,59 L 199,59 L 198,60 L 196,60 L 195,61 L 193,61 L 192,62 L 190,62 L 189,63 L 187,63 L 186,64 L 185,64 L 184,65 L 182,65 L 181,66 L 180,66 L 179,67 L 178,67 L 177,68 L 176,68 L 175,69 L 174,69 L 173,70 L 172,70 L 171,71 L 170,71 L 169,72 L 168,72 L 167,73 L 166,73 L 164,75 L 163,75 L 162,76 L 161,76 L 159,78 L 158,78 L 156,80 L 155,80 L 153,82 L 152,82 L 149,85 L 148,85 L 145,88 L 144,88 L 139,93 L 138,93 L 122,109 L 122,110 L 117,115 L 117,116 L 114,119 L 114,120 L 111,123 L 111,124 L 109,126 L 109,127 L 107,129 L 107,130 L 105,132 L 105,133 L 104,134 L 104,135 L 102,137 L 102,138 L 101,139 L 101,140 L 100,141 L 100,142 L 99,143 L 99,144 L 98,145 L 98,146 L 97,147 L 97,148 L 96,149 L 96,150 L 95,151 L 95,153 L 94,154 L 94,155 L 93,156 L 93,158 L 92,159 L 92,160 L 91,161 L 91,163 L 90,164 L 90,166 L 89,167 L 89,170 L 88,171 L 88,173 L 87,174 L 87,177 L 86,178 L 86,182 L 85,183 L 85,188 L 84,189 L 84,194 L 83,195 L 83,203 L 82,204 L 82,229 L 83,230 L 83,238 L 84,239 L 84,245 L 85,246 L 85,250 L 86,251 L 86,255 L 87,256 L 87,258 L 88,259 L 88,262 L 89,263 L 89,265 L 90,266 L 90,269 L 91,270 L 91,271 L 92,272 L 92,274 L 93,275 L 93,277 L 94,278 L 94,279 L 95,280 L 95,282 L 96,283 L 96,284 L 97,285 L 97,286 L 98,287 L 98,288 L 99,289 L 99,290 L 100,291 L 100,292 L 101,293 L 101,294 L 102,295 L 102,296 L 103,297 L 103,298 L 105,300 L 105,301 L 106,302 L 106,303 L 108,305 L 108,306 L 110,308 L 110,309 L 112,311 L 112,312 L 115,315 L 115,316 L 118,319 L 118,320 L 123,325 L 123,326 L 139,342 L 140,342 L 145,347 L 146,347 L 149,350 L 150,350 L 153,353 L 154,353 L 156,355 L 157,355 L 159,357 L 160,357 L 161,358 L 162,358 L 164,360 L 165,360 L 166,361 L 167,361 L 169,363 L 170,363 L 171,364 L 172,364 L 173,365 L 174,365 L 175,366 L 176,366 L 177,367 L 178,367 L 179,368 L 181,368 L 182,369 L 183,369 L 184,370 L 185,370 L 186,371 L 188,371 L 189,372 L 190,372 L 191,373 L 193,373 L 194,374 L 196,374 L 197,375 L 199,375 L 200,376 L 202,376 L 203,377 L 206,377 L 207,378 L 210,378 L 211,379 L 214,379 L 215,380 L 220,380 L 221,381 L 226,381 L 227,382 L 238,382 L 239,383 L 254,383 L 255,382 L 266,382 L 267,381 L 273,381 L 274,380 L 279,380 L 280,379 L 283,379 L 284,378 L 287,378 L 288,377 L 291,377 L 292,376 L 295,376 L 296,375 L 298,375 L 299,374 L 301,374 L 302,373 L 303,373 L 304,372 L 306,372 L 307,371 L 309,371 L 310,370 L 311,370 L 312,369 L 313,369 L 314,368 L 315,368 L 316,367 L 318,367 L 319,366 L 320,366 L 321,365 L 322,365 L 323,364 L 324,364 L 326,362 L 327,362 L 328,361 L 329,361 L 330,360 L 331,360 L 333,358 L 334,358 L 335,357 L 336,357 L 338,355 L 339,355 L 341,353 L 342,353 L 345,350 L 346,350 L 349,347 L 350,347 L 355,342 L 356,342 L 372,326 L 372,325 L 377,320 L 377,319 L 380,316 L 380,315 L 382,313 L 382,312 L 384,310 L 384,309 L 386,307 L 386,306 L 388,304 L 388,303 L 390,301 L 390,300 L 391,299 L 391,298 L 392,297 L 392,296 L 393,295 L 393,294 L 394,293 L 394,292 L 395,291 L 395,290 L 396,289 L 396,288 L 397,287 L 397,286 L 398,285 L 398,284 L 399,283 L 399,281 L 400,280 L 400,279 L 401,278 L 401,276 L 402,275 L 402,274 L 403,273 L 403,271 L 404,270 L 404,267 L 405,266 L 405,264 L 406,263 L 406,260 L 407,259 L 407,256 L 408,255 L 408,252 L 409,251 L 409,247 L 410,246 L 410,240 L 411,239 L 411,231 L 412,230 L 412,204 L 411,203 L 411,195 L 410,194 L 410,189 L 409,188 L 409,183 L 408,182 L 408,179 L 407,178 L 407,175 L 406,174 L 406,171 L 405,170 L 405,168 L 404,167 L 404,165 L 403,164 L 403,162 L 402,161 L 402,159 L 401,158 L 401,156 L 400,155 L 400,154 L 399,153 L 399,151 L 398,150 L 398,149 L 397,148 L 397,147 L 396,146 L 396,145 L 395,144 L 395,143 L 394,142 L 394,141 L 393,140 L 393,139 L 392,138 L 392,137 L 391,136 L 391,135 L 389,133 L 389,132 L 388,131 L 388,130 L 386,128 L 386,127 L 384,125 L 384,124 L 382,122 L 382,121 L 379,118 L 379,117 L 376,114 L 376,113 L 370,107 L 370,106 L 359,95 L 358,95 L 352,89 L 351,89 L 347,85 L 346,85 L 344,83 L 343,83 L 340,80 L 339,80 L 337,78 L 336,78 L 335,77 L 334,77 L 332,75 L 331,75 L 330,74 L 329,74 L 327,72 L 326,72 L 325,71 L 324,71 L 323,70 L 322,70 L 321,69 L 320,69 L 319,68 L 318,68 L 317,67 L 315,67 L 314,66 L 313,66 L 312,65 L 311,65 L 310,64 L 308,64 L 307,63 L 305,63 L 304,62 L 303,62 L 302,61 L 299,61 L 298,60 L 296,60 L 295,59 L 293,59 L 292,58 L 289,58 L 288,57 L 285,57 L 284,56 L 280,56 L 279,55 L 274,55 L 273,54 L 267,54 L 266,53 L 249,53 Z" fill="black" /></svg>