<?xml version="1.0" encoding="utf-8" ?>
<svg baseProfile="tiny" height="512" version="1.2" width="512" xmlns="http://www.w3.org/2000/svg" xmlns:ev="http://www.w3.org/2001/xml-events" xmlns:xlink="http://www.w3.org/1999/xlink"><defs /><path d="M 108,93 L 107,94 L 105,94 L 103,96 L 102,96 L 98,100 L 98,101 L 97,102 L 97,104 L 96,105 L 96,437 L 97,438 L 97,439 L 98,440 L 98,441 L 103,446 L 104,446 L 105,447 L 108,447 L 109,448 L 308,448 L 309,447 L 310,447 L 311,448 L 312,447 L 437,447 L 438,446 L 440,446 L 446,440 L 446,438 L 447,437 L 447,105 L 446,104 L 446,102 L 445,101 L 445,100 L 441,96 L 440,96 L 438,94 L 436,94 L 435,93 Z" fill="black" /></svg>