<!-- build/img/whatsapp-icon.svg -->
<svg xmlns="http://www.w3.org/2000/svg" viewBox="0 0 48 48" width="48" height="48">
  <path fill="#25d366" d="M4 42l2.9-10.7C5.4 28.1 4 24.7 4 21 4 10.5 13.5 2 24 2s20 8.5 20 19c0 10.5-8.5 19-20 19-3.7 0-7.1-1-10.3-2.9z"></path>
  <path fill="#fff" d="M20 14.7c-.2-.6-.4-1.1-.7-1.6-.3-.4-.6-.8-1.1-.9s-1 .1-1.4.3c-.7.3-1.5 1-2 2-1.1 2.3-.1 5.2 1.3 7.3s3.6 4.3 6 5.2c1 .3 2.1.3 3.1-.3.5-.3 1-.7 1.3-1.2.4-.5.4-1.1.3-1.7-.2-.5-.7-1-1.3-1.1-1-.2-2-.4-3-.8-1.4-.6-2.4-1.5-3.3-2.7-.4-.5-.6-1.1-.7-1.8z"></path>
</svg>
